<svg xmlns="http://www.w3.org/2000/svg" width="32" height="32" viewBox="0 0 24 24"><path fill="currentColor" d="M12.028 17.23q.332 0 .56-.228t.227-.56t-.229-.56t-.56-.228t-.56.229t-.228.56t.23.56t.56.228m-.516-3.312h.965q.038-.652.245-1.06q.207-.407.851-1.04q.67-.669.996-1.199q.327-.53.327-1.226q0-1.182-.83-1.884T12.1 6.808q-1.079 0-1.832.586T9.165 8.742l.92.381q.24-.546.687-.965t1.29-.42q.973 0 1.42.534q.449.534.449 1.174q0 .52-.281.928t-.73.822q-.87.802-1.14 1.36q-.268.557-.268 1.363M12.003 21q-1.866 0-3.51-.708q-1.643-.709-2.859-1.924t-1.925-2.856T3 12.003t.708-3.51t1.924-2.859t2.856-1.925T11.997 3t3.51.708t2.859 1.924t1.925 2.856t.709 3.509t-.708 3.51t-1.924 2.859t-2.856 1.925t-3.509.709M12 20q3.35 0 5.675-2.325T20 12t-2.325-5.675T12 4T6.325 6.325T4 12t2.325 5.675T12 20m0-8"/></svg>